HIERARCHY
ROOT joint_Root
{
	OFFSET 0.0 0.0 0.0
	CHANNELS 6 Xposition Yposition Zposition Zrotation Xrotation Yrotation 
	JOINT Hips
	{
		OFFSET -0.726466 93.3139 -2.00062
		CHANNELS 6 Xposition Yposition Zposition Zrotation Xrotation Yrotation 
		JOINT Spine
		{
			OFFSET 15.7357 0.0 0.0
			CHANNELS 6 Xposition Yposition Zposition Zrotation Xrotation Yrotation 
			JOINT Chest
			{
				OFFSET 8.98455 -0.406207 0.0
				CHANNELS 6 Xposition Yposition Zposition Zrotation Xrotation Yrotation 
				JOINT Neck
				{
					OFFSET 16.3773 0.0 0.0
					CHANNELS 6 Xposition Yposition Zposition Zrotation Xrotation Yrotation 
					JOINT Head
					{
						OFFSET 6.45672 0.0 0.0
						CHANNELS 6 Xposition Yposition Zposition Zrotation Xrotation Yrotation 
						End Site
						{
							OFFSET 0.0 0.0 0.0
						}
					}
				}
				JOINT Shoulder_L
				{
					OFFSET 12.9942 -0.242716 4.98039
					CHANNELS 6 Xposition Yposition Zposition Zrotation Xrotation Yrotation 
					JOINT UpperArm_L
					{
						OFFSET 5.34809 0.0 0.0
						CHANNELS 6 Xposition Yposition Zposition Zrotation Xrotation Yrotation 
						JOINT LowerArm_L
						{
							OFFSET 24.3286 1.87007e-05 0.0
							CHANNELS 6 Xposition Yposition Zposition Zrotation Xrotation Yrotation 
							JOINT Hand_L
							{
								OFFSET 22.2916 0.0 0.0
								CHANNELS 6 Xposition Yposition Zposition Zrotation Xrotation Yrotation 
								End Site
								{
									OFFSET 0.0 0.0 0.0
								}
							}
						}
					}
				}
				JOINT Shoulder_R
				{
					OFFSET 12.9945 -0.242716 -4.98039
					CHANNELS 6 Xposition Yposition Zposition Zrotation Xrotation Yrotation 
					JOINT UpperArm_R
					{
						OFFSET -5.34813 0.0 0.0
						CHANNELS 6 Xposition Yposition Zposition Zrotation Xrotation Yrotation 
						JOINT LowerArm_R
						{
							OFFSET -24.3289 0.000322201 0.0
							CHANNELS 6 Xposition Yposition Zposition Zrotation Xrotation Yrotation 
							JOINT Hand_R
							{
								OFFSET -22.2915 -0.000108084 0.0
								CHANNELS 6 Xposition Yposition Zposition Zrotation Xrotation Yrotation 
								End Site
								{
									OFFSET 0.0 0.0 0.0
								}
							}
						}
					}
				}
			}
		}
		JOINT UpperLeg_L
		{
			OFFSET -2.19248 -6.46944 0.0
			CHANNELS 6 Xposition Yposition Zposition Zrotation Xrotation Yrotation 
			JOINT LowerLeg_L
			{
				OFFSET 39.0811 0.0 -1.23785e-05
				CHANNELS 6 Xposition Yposition Zposition Zrotation Xrotation Yrotation 
				JOINT Foot_L
				{
					OFFSET 40.9854 0.0 -1.26872e-05
					CHANNELS 6 Xposition Yposition Zposition Zrotation Xrotation Yrotation 
					JOINT Toes_L
					{
						OFFSET 11.7543 0.0 0.0
						CHANNELS 6 Xposition Yposition Zposition Zrotation Xrotation Yrotation 
						End Site
						{
							OFFSET 0.0 0.0 0.0
						}
					}
				}
			}
		}
		JOINT UpperLeg_R
		{
			OFFSET -2.19251 6.46944 0.0
			CHANNELS 6 Xposition Yposition Zposition Zrotation Xrotation Yrotation 
			JOINT LowerLeg_R
			{
				OFFSET -39.0811 -0.00228153 -0.0401928
				CHANNELS 6 Xposition Yposition Zposition Zrotation Xrotation Yrotation 
				JOINT Foot_R
				{
					OFFSET -40.9854 0.0 0.0
					CHANNELS 6 Xposition Yposition Zposition Zrotation Xrotation Yrotation 
					JOINT Toes_R
					{
						OFFSET -11.7543 0.0 0.0
						CHANNELS 6 Xposition Yposition Zposition Zrotation Xrotation Yrotation 
						End Site
						{
							OFFSET 0.0 0.0 0.0
						}
					}
				}
			}
		}
	}
}
MOTION
Frames:	5
Frame Time:	0.0333333
0.000000 0.000000 0.000000 0.000000 0.000000 -0.000000 0.205208 92.236400 -1.703090 88.195300 -1.038030 2.667130 15.735700 0.000005 -0.000001 83.261100 87.608000 -83.273100 8.984550 -0.406207 -0.000000 -3.015280 -0.560006 -0.038709 16.377300 -0.000001 -0.000001 0.516261 -2.290090 -0.375601 6.456720 -0.000001 -0.000000 -3.904460 -3.142390 7.917980 12.994200 -0.242716 4.980390 -82.797900 -13.273500 -61.172400 5.348090 -0.000007 -0.000001 -61.466100 -44.543200 -126.181000 24.328600 0.000019 0.000005 1.359670 1.270020 -46.959200 22.291600 -0.000001 0.000005 20.773000 5.595440 -11.073300 12.994500 -0.242716 -4.980390 93.473400 -7.550590 -65.206500 -5.348130 -0.000001 -0.000004 -61.501400 -42.729100 -128.409000 -24.328900 0.000322 -0.000009 -2.090580 -1.920340 -47.432200 -22.291500 -0.000108 -0.000004 20.806800 5.482610 -5.848330 -2.192480 -6.469440 -0.000000 -170.050000 -16.118700 -3.412200 39.081100 -0.000007 -0.000012 -0.159338 0.421622 20.702600 40.985400 -0.000006 -0.000013 -6.249260 0.102630 -62.773700 11.754300 -0.000000 0.000003 -0.000141 -0.001377 -16.630000 -2.192510 6.469440 -0.000001 173.489000 19.907400 178.855000 -39.081100 -0.002282 -0.040193 0.037651 -0.103167 18.403900 -40.985400 0.000008 0.000006 -1.572380 2.335970 -62.323600 -11.754300 -0.000006 -0.000006 -0.004589 -0.057431 -18.909600
0.000000 0.000000 0.000000 0.000000 0.000000 -0.000000 0.195768 92.251600 -1.741530 88.226200 -0.888294 2.635760 15.735700 0.000005 -0.000001 82.482700 87.593900 -82.493000 8.984550 -0.406207 -0.000000 -2.995240 -0.628335 -0.037030 16.377300 -0.000001 -0.000001 0.460289 -2.386760 -0.353326 6.456720 -0.000001 -0.000000 -3.914000 -3.173040 7.930760 12.994200 -0.242716 4.980390 -82.819400 -13.201700 -61.116600 5.348090 -0.000007 -0.000001 -60.829400 -45.148700 -125.576000 24.328600 0.000019 0.000005 1.213520 1.126920 -47.124300 22.291600 -0.000001 0.000005 20.710900 5.597080 -11.169400 12.994500 -0.242716 -4.980390 93.476100 -7.491440 -65.019000 -5.348130 -0.000001 -0.000004 -61.061600 -43.403100 -128.258000 -24.328900 0.000322 -0.000009 -2.074580 -1.935420 -46.989500 -22.291500 -0.000108 -0.000004 20.515100 5.486040 -5.981320 -2.192480 -6.469440 -0.000000 -170.108000 -16.049200 -3.455590 39.081100 -0.000007 -0.000012 -0.157034 0.418065 20.587500 40.985400 -0.000006 -0.000013 -6.228010 0.153790 -62.668000 11.754300 -0.000000 0.000003 -0.000130 -0.001286 -16.626600 -2.192510 6.469440 -0.000001 173.475000 20.003400 178.838000 -39.081100 -0.002282 -0.040193 0.037542 -0.103112 18.358500 -40.985400 0.000008 0.000006 -1.576620 2.295880 -62.261100 -11.754300 -0.000006 -0.000006 -0.004680 -0.058331 -18.946200
0.000000 0.000000 0.000000 0.000000 0.000000 -0.000000 0.157461 92.257500 -1.775400 88.222100 -0.789184 2.575820 15.735700 0.000005 -0.000001 81.928000 87.593700 -81.926100 8.984550 -0.406207 -0.000000 -3.001250 -0.675664 -0.013961 16.377300 -0.000001 -0.000001 0.561437 -2.429780 -0.276497 6.456720 -0.000001 -0.000000 -4.090340 -3.233410 7.828810 12.994200 -0.242716 4.980390 -82.845600 -13.110700 -61.041400 5.348090 -0.000007 -0.000001 -60.256900 -46.036600 -124.274000 24.328600 0.000019 0.000005 1.194120 1.111190 -47.065400 22.291600 -0.000001 0.000005 20.479500 5.596530 -11.136800 12.994500 -0.242716 -4.980390 93.472300 -7.418840 -64.829600 -5.348130 -0.000001 -0.000004 -60.969400 -43.968500 -127.544000 -24.328900 0.000322 -0.000009 -2.174280 -2.074800 -46.345800 -22.291500 -0.000108 -0.000004 20.313300 5.484710 -5.929590 -2.192480 -6.469440 -0.000000 -170.098000 -16.053000 -3.542550 39.081100 -0.000007 -0.000012 -0.157025 0.419172 20.536500 40.985400 -0.000006 -0.000013 -6.229880 0.247869 -62.590500 11.754300 -0.000000 0.000003 -0.000142 -0.001386 -16.630300 -2.192510 6.469440 -0.000001 173.537000 20.077700 178.779000 -39.081100 -0.002282 -0.040193 0.038047 -0.104702 18.347300 -40.985400 0.000008 0.000006 -1.544310 2.208880 -62.262800 -11.754300 -0.000006 -0.000006 -0.004642 -0.057959 -18.931100
0.000000 0.000000 0.000000 0.000000 0.000000 -0.000000 0.143725 92.266800 -1.803030 88.222200 -0.780335 2.504810 15.735700 0.000005 -0.000001 81.933500 87.590400 -81.916200 8.984550 -0.406207 -0.000000 -2.994510 -0.677584 0.016862 16.377300 -0.000001 -0.000001 0.582118 -2.520780 -0.232945 6.456720 -0.000001 -0.000000 -4.037160 -3.309040 7.685960 12.994200 -0.242716 4.980390 -82.910600 -12.920900 -60.917100 5.348090 -0.000007 -0.000001 -59.818100 -47.000000 -122.496000 24.328600 0.000019 0.000005 0.996665 0.942963 -46.588400 22.291600 -0.000001 0.000005 20.404000 5.596370 -11.128000 12.994500 -0.242716 -4.980390 93.417000 -7.258050 -64.703800 -5.348130 -0.000001 -0.000004 -61.024200 -44.594500 -126.330000 -24.328900 0.000322 -0.000009 -1.990680 -1.962360 -45.411000 -22.291500 -0.000108 -0.000004 20.442400 5.484470 -5.920790 -2.192480 -6.469440 -0.000000 -170.113000 -16.046700 -3.601690 39.081100 -0.000007 -0.000012 -0.156176 0.418576 20.461400 40.985400 -0.000006 -0.000013 -6.239660 0.234651 -62.530000 11.754300 -0.000000 0.000003 -0.000133 -0.001314 -16.627600 -2.192510 6.469440 -0.000001 173.579000 20.107100 178.700000 -39.081100 -0.002282 -0.040193 0.038202 -0.105432 18.304600 -40.985400 0.000008 0.000006 -1.489030 2.237420 -62.229600 -11.754300 -0.000006 -0.000006 -0.004664 -0.058178 -18.940000
0.000000 0.000000 0.000000 0.000000 0.000000 -0.000000 0.125147 92.266200 -1.817790 88.191000 -0.794823 2.480430 15.735700 0.000005 -0.000001 82.374800 87.577500 -82.345100 8.984550 -0.406207 -0.000000 -2.963760 -0.645414 0.042796 16.377300 -0.000001 -0.000001 0.620379 -2.531470 -0.213147 6.456720 -0.000001 -0.000000 -4.016560 -3.376370 7.632620 12.994200 -0.242716 4.980390 -82.979100 -12.714100 -60.769700 5.348090 -0.000007 -0.000001 -59.745000 -47.849000 -120.465000 24.328600 0.000019 0.000005 1.002100 0.972820 -45.851400 22.291600 -0.000001 0.000005 20.008200 5.590540 -10.792600 12.994500 -0.242716 -4.980390 93.331300 -7.026360 -64.553100 -5.348130 -0.000001 -0.000004 -61.145800 -45.232600 -124.442000 -24.328900 0.000322 -0.000009 -2.119770 -2.156050 -44.518600 -22.291500 -0.000108 -0.000004 20.407600 5.484260 -5.912570 -2.192480 -6.469440 -0.000000 -170.078000 -16.021700 -3.642340 39.081100 -0.000007 -0.000012 -0.156622 0.419321 20.481500 40.985400 -0.000006 -0.000013 -6.256860 0.210554 -62.533800 11.754300 -0.000000 0.000003 -0.000122 -0.001218 -16.624100 -2.192510 6.469440 -0.000001 173.631000 20.104600 178.667000 -39.081100 -0.002282 -0.040193 0.037973 -0.104823 18.291200 -40.985400 0.000008 0.000006 -1.485040 2.277710 -62.220600 -11.754300 -0.000006 -0.000006 -0.004607 -0.057607 -18.916700
